<svg width="16" height="19" viewBox="0 0 16 19" fill="none" xmlns="http://www.w3.org/2000/svg">
<path d="M14.0625 8.125H13.2188V5.59375C13.2188 2.67578 10.793 0.25 7.875 0.25C4.92188 0.25 2.53125 2.67578 2.53125 5.59375V8.125H1.6875C0.738281 8.125 0 8.89844 0 9.8125V16.5625C0 17.5117 0.738281 18.25 1.6875 18.25H14.0625C14.9766 18.25 15.75 17.5117 15.75 16.5625V9.8125C15.75 8.89844 14.9766 8.125 14.0625 8.125ZM10.4062 8.125H5.34375V5.59375C5.34375 4.22266 6.46875 3.0625 7.875 3.0625C9.24609 3.0625 10.4062 4.22266 10.4062 5.59375V8.125Z" fill="#9E9EA7"/>
</svg>
