<svg width="41" height="55" viewBox="0 0 41 55" fill="none" xmlns="http://www.w3.org/2000/svg">
<path d="M40.5 12.0625C40.5 9.32031 38.1797 7 35.4375 7H27C27 3.30859 23.9414 0.25 20.25 0.25C16.4531 0.25 13.5 3.30859 13.5 7H5.0625C2.21484 7 0 9.32031 0 12.0625V49.1875C0 52.0352 2.21484 54.25 5.0625 54.25H35.4375C38.1797 54.25 40.5 52.0352 40.5 49.1875V12.0625ZM20.25 4.46875C21.6211 4.46875 22.7812 5.62891 22.7812 7C22.7812 8.47656 21.6211 9.53125 20.25 9.53125C18.7734 9.53125 17.7188 8.47656 17.7188 7C17.7188 5.62891 18.7734 4.46875 20.25 4.46875ZM30.375 16.4922C30.375 16.9141 30.0586 17.125 29.7422 17.125H10.7578C10.3359 17.125 10.125 16.9141 10.125 16.4922V14.3828C10.125 14.0664 10.3359 13.75 10.7578 13.75H29.7422C30.0586 13.75 30.375 14.0664 30.375 14.3828V16.4922Z" fill="#BDBDBD"/>
</svg>
