<svg width="14" height="19" viewBox="0 0 14 19" fill="none" xmlns="http://www.w3.org/2000/svg">
<path d="M7.92285 5.03125V0.25H0.891602C0.399414 0.25 0.0478516 0.636719 0.0478516 1.09375V17.4062C0.0478516 17.8984 0.399414 18.25 0.891602 18.25H12.7041C13.1611 18.25 13.5479 17.8984 13.5479 17.4062V5.875H8.7666C8.27441 5.875 7.92285 5.52344 7.92285 5.03125ZM10.1729 13.3281C10.1729 13.5742 9.96191 13.75 9.75098 13.75H3.84473C3.59863 13.75 3.42285 13.5742 3.42285 13.3281V13.0469C3.42285 12.8359 3.59863 12.625 3.84473 12.625H9.75098C9.96191 12.625 10.1729 12.8359 10.1729 13.0469V13.3281ZM10.1729 11.0781C10.1729 11.3242 9.96191 11.5 9.75098 11.5H3.84473C3.59863 11.5 3.42285 11.3242 3.42285 11.0781V10.7969C3.42285 10.5859 3.59863 10.375 3.84473 10.375H9.75098C9.96191 10.375 10.1729 10.5859 10.1729 10.7969V11.0781ZM10.1729 8.54688V8.82812C10.1729 9.07422 9.96191 9.25 9.75098 9.25H3.84473C3.59863 9.25 3.42285 9.07422 3.42285 8.82812V8.54688C3.42285 8.33594 3.59863 8.125 3.84473 8.125H9.75098C9.96191 8.125 10.1729 8.33594 10.1729 8.54688ZM13.5479 4.53906C13.5479 4.32812 13.4424 4.11719 13.3018 3.94141L9.85645 0.496094C9.68066 0.355469 9.46973 0.25 9.25879 0.25H9.04785V4.75H13.5479V4.53906Z" fill="white"/>
</svg>
