<svg width="204" height="61" viewBox="0 0 204 61" fill="none" xmlns="http://www.w3.org/2000/svg">
<path d="M0 9.91736C0 4.44015 4.44015 0 9.91736 0H50.0826C55.5598 0 60 4.44015 60 9.91736V51.0744C60 56.5516 55.5598 60.9917 50.0826 60.9917H9.91736C4.44015 60.9917 0 56.5516 0 51.0744V9.91736Z" fill="#8615DF"/>
<path fill-rule="evenodd" clip-rule="evenodd" d="M50.0826 2.47934H9.91736C5.80945 2.47934 2.47934 5.80945 2.47934 9.91736V51.0744C2.47934 55.1823 5.80945 58.5124 9.91736 58.5124H50.0826C54.1905 58.5124 57.5207 55.1823 57.5207 51.0744V9.91736C57.5207 5.80945 54.1905 2.47934 50.0826 2.47934ZM9.91736 0C4.44015 0 0 4.44015 0 9.91736V51.0744C0 56.5516 4.44015 60.9917 9.91736 60.9917H50.0826C55.5598 60.9917 60 56.5516 60 51.0744V9.91736C60 4.44015 55.5598 0 50.0826 0H9.91736Z" fill="#8615DF"/>
<path d="M8.46851 45.1239V16.9215H17.1462C19.6255 16.9215 21.8401 17.4832 23.79 18.6066C25.7529 19.7172 27.2831 21.3055 28.3807 23.3716C29.4783 25.4248 30.0271 27.7621 30.0271 30.3835V31.6813C30.0271 34.3027 29.4848 36.6335 28.4001 38.6738C27.3283 40.7141 25.811 42.2959 23.8482 43.4194C21.8853 44.5428 19.6707 45.111 17.2043 45.1239H8.46851ZM14.2795 21.6283V40.4558H17.0881C19.3608 40.4558 21.0976 39.7133 22.2986 38.2283C23.4995 36.7433 24.1129 34.619 24.1387 31.8556V30.3641C24.1387 27.4974 23.5447 25.328 22.3567 23.8559C21.1687 22.3708 19.4318 21.6283 17.1462 21.6283H14.2795Z" fill="white"/>
<path d="M51.485 31.6619C51.485 34.4382 50.9943 36.8724 50.0129 38.9643C49.0315 41.0563 47.624 42.6704 45.7903 43.8068C43.9695 44.9432 41.8776 45.5113 39.5145 45.5113C37.1772 45.5113 35.0917 44.9496 33.258 43.8262C31.4243 42.7027 30.0039 41.1015 28.9967 39.0224C27.9894 36.9305 27.4794 34.5286 27.4664 31.8169V30.4222C27.4664 27.6459 27.9636 25.2053 28.9579 23.1004C29.9652 20.9827 31.3791 19.3621 33.1999 18.2386C35.0336 17.1022 37.1255 16.5341 39.4757 16.5341C41.8259 16.5341 43.9114 17.1022 45.7322 18.2386C47.5659 19.3621 48.9799 20.9827 49.9742 23.1004C50.9814 25.2053 51.485 27.6394 51.485 30.4029V31.6619ZM45.5966 30.3835C45.5966 27.4264 45.0672 25.1795 44.0083 23.6428C42.9494 22.1061 41.4385 21.3378 39.4757 21.3378C37.5258 21.3378 36.0215 22.0997 34.9626 23.6234C33.9037 25.1343 33.3678 27.3553 33.3549 30.2866V31.6619C33.3549 34.5415 33.8843 36.7755 34.9432 38.3639C36.0021 39.9522 37.5258 40.7464 39.5145 40.7464C41.4644 40.7464 42.9623 39.9845 44.0083 38.4607C45.0543 36.924 45.5837 34.6901 45.5966 31.7587V30.3835Z" fill="white"/>
<path d="M77.7045 38C83.0227 38 86.2443 34.7102 86.2443 29.2557C86.2443 23.8182 83.0227 20.5455 77.7557 20.5455H71.517V38H77.7045ZM75.2074 34.8381V23.7074H77.5597C80.8324 23.7074 82.5625 25.3778 82.5625 29.2557C82.5625 33.1506 80.8324 34.8381 77.5511 34.8381H75.2074ZM92.6428 38.2472C94.5774 38.2472 95.8303 37.4034 96.4695 36.1847H96.5717V38H100.015V29.1705C100.015 26.0511 97.3729 24.7386 94.4581 24.7386C91.3217 24.7386 89.2592 26.2386 88.7564 28.625L92.1143 28.8977C92.3615 28.0284 93.1371 27.3892 94.4411 27.3892C95.6768 27.3892 96.3842 28.0114 96.3842 29.0852V29.1364C96.3842 29.9801 95.4893 30.0909 93.2138 30.3125C90.6229 30.5511 88.2962 31.4205 88.2962 34.3438C88.2962 36.9347 90.1456 38.2472 92.6428 38.2472ZM93.6825 35.7415C92.5661 35.7415 91.7649 35.2216 91.7649 34.2244C91.7649 33.2017 92.6087 32.6989 93.8871 32.5199C94.6797 32.4091 95.9751 32.2216 96.4098 31.9318V33.321C96.4098 34.6932 95.2763 35.7415 93.6825 35.7415ZM113.724 28.642C113.4 26.2301 111.457 24.7386 108.15 24.7386C104.8 24.7386 102.593 26.2898 102.602 28.8125C102.593 30.7727 103.829 32.0426 106.386 32.554L108.653 33.0057C109.795 33.2358 110.315 33.6534 110.332 34.3097C110.315 35.0852 109.471 35.6392 108.201 35.6392C106.906 35.6392 106.045 35.0852 105.823 34.0199L102.252 34.2074C102.593 36.7131 104.724 38.2557 108.192 38.2557C111.585 38.2557 114.013 36.5256 114.022 33.9432C114.013 32.0511 112.778 30.9176 110.238 30.3977L107.869 29.9205C106.65 29.6562 106.198 29.2386 106.207 28.608C106.198 27.8239 107.085 27.3125 108.21 27.3125C109.471 27.3125 110.221 28.0028 110.4 28.8466L113.724 28.642ZM119.939 30.4318C119.947 28.7443 120.979 27.7557 122.462 27.7557C123.936 27.7557 124.805 28.7017 124.797 30.3125V38H128.428V29.6648C128.436 26.5966 126.629 24.7386 123.902 24.7386C121.916 24.7386 120.587 25.6761 119.99 27.2188H119.837V20.5455H116.308V38H119.939V30.4318ZM131.353 38H134.933V35.9034H135.094C135.597 36.9943 136.697 38.2131 138.81 38.2131C141.793 38.2131 144.12 35.8523 144.12 31.4716C144.12 26.9716 141.691 24.7386 138.819 24.7386C136.629 24.7386 135.58 26.0426 135.094 27.108H134.984V20.5455H131.353V38ZM134.907 31.4545C134.907 29.1193 135.896 27.6278 137.66 27.6278C139.458 27.6278 140.413 29.1875 140.413 31.4545C140.413 33.7386 139.441 35.3239 137.66 35.3239C135.913 35.3239 134.907 33.7898 134.907 31.4545ZM152.457 38.2557C156.429 38.2557 158.901 35.5369 158.901 31.5057C158.901 27.4489 156.429 24.7386 152.457 24.7386C148.486 24.7386 146.014 27.4489 146.014 31.5057C146.014 35.5369 148.486 38.2557 152.457 38.2557ZM152.474 35.4432C150.642 35.4432 149.705 33.7642 149.705 31.4801C149.705 29.196 150.642 27.5085 152.474 27.5085C154.273 27.5085 155.21 29.196 155.21 31.4801C155.21 33.7642 154.273 35.4432 152.474 35.4432ZM164.994 38.2472C166.929 38.2472 168.182 37.4034 168.821 36.1847H168.923V38H172.366V29.1705C172.366 26.0511 169.724 24.7386 166.81 24.7386C163.673 24.7386 161.611 26.2386 161.108 28.625L164.466 28.8977C164.713 28.0284 165.489 27.3892 166.793 27.3892C168.028 27.3892 168.736 28.0114 168.736 29.0852V29.1364C168.736 29.9801 167.841 30.0909 165.565 30.3125C162.974 30.5511 160.648 31.4205 160.648 34.3438C160.648 36.9347 162.497 38.2472 164.994 38.2472ZM166.034 35.7415C164.918 35.7415 164.116 35.2216 164.116 34.2244C164.116 33.2017 164.96 32.6989 166.239 32.5199C167.031 32.4091 168.327 32.2216 168.761 31.9318V33.321C168.761 34.6932 167.628 35.7415 166.034 35.7415ZM175.183 38H178.814V30.5938C178.814 28.983 179.99 27.875 181.592 27.875C182.095 27.875 182.786 27.9602 183.126 28.071V24.8494C182.803 24.7727 182.351 24.7216 181.984 24.7216C180.518 24.7216 179.317 25.5739 178.839 27.1932H178.703V24.9091H175.183V38ZM189.218 38.2131C191.332 38.2131 192.431 36.9943 192.934 35.9034H193.087V38H196.667V20.5455H193.045V27.108H192.934C192.448 26.0426 191.4 24.7386 189.21 24.7386C186.337 24.7386 183.908 26.9716 183.908 31.4716C183.908 35.8523 186.235 38.2131 189.218 38.2131ZM190.369 35.3239C188.587 35.3239 187.616 33.7386 187.616 31.4545C187.616 29.1875 188.57 27.6278 190.369 27.6278C192.133 27.6278 193.121 29.1193 193.121 31.4545C193.121 33.7898 192.116 35.3239 190.369 35.3239Z" fill="#0E0E0F"/>
</svg>
