<svg width="120" height="82" viewBox="0 0 120 82" fill="none" xmlns="http://www.w3.org/2000/svg">
<path d="M0 13.2597C0 5.93656 5.93656 0 13.2597 0H66.9613C74.2844 0 80.221 5.93656 80.221 13.2597V68.2873C80.221 75.6104 74.2844 81.547 66.9613 81.547H13.2597C5.93656 81.547 0 75.6104 0 68.2873V13.2597Z" fill="#8615DF"/>
<path fill-rule="evenodd" clip-rule="evenodd" d="M66.9613 3.31492H13.2597C7.76733 3.31492 3.31492 7.76733 3.31492 13.2597V68.2873C3.31492 73.7796 7.76733 78.232 13.2597 78.232H66.9613C72.4537 78.232 76.9061 73.7796 76.9061 68.2873V13.2597C76.9061 7.76733 72.4537 3.31492 66.9613 3.31492ZM13.2597 0C5.93656 0 0 5.93656 0 13.2597V68.2873C0 75.6104 5.93656 81.547 13.2597 81.547H66.9613C74.2844 81.547 80.221 75.6104 80.221 68.2873V13.2597C80.221 5.93656 74.2844 0 66.9613 0H13.2597Z" fill="#8615DF"/>
<path d="M11.3225 60.3315V22.6243H22.9247C26.2396 22.6243 29.2006 23.3753 31.8077 24.8774C34.432 26.3622 36.4779 28.4858 37.9454 31.2483C39.413 33.9934 40.1467 37.1184 40.1467 40.6233V42.3584C40.1467 45.8632 39.4216 48.9796 37.9713 51.7075C36.5383 54.4354 34.5097 56.5504 31.8854 58.0525C29.261 59.5545 26.3001 60.3142 23.0024 60.3315H11.3225ZM19.0918 28.9175V54.0901H22.847C25.8857 54.0901 28.2079 53.0974 29.8135 51.1119C31.4192 49.1264 32.2393 46.2862 32.2738 42.5915V40.5974C32.2738 36.7645 31.4796 33.8639 29.8912 31.8957C28.3028 29.9102 25.9807 28.9175 22.9247 28.9175H19.0918Z" fill="white"/>
<path d="M68.8363 42.3325C68.8363 46.0445 68.1802 49.299 66.8681 52.096C65.5559 54.8929 63.674 57.0511 61.2224 58.5704C58.788 60.0898 55.991 60.8494 52.8315 60.8494C49.7065 60.8494 46.9182 60.0984 44.4665 58.5963C42.0148 57.0942 40.1157 54.9534 38.769 52.1737C37.4223 49.3767 36.7403 46.1654 36.7231 42.5397V40.6751C36.7231 36.963 37.3878 33.6999 38.7172 30.8857C40.0639 28.0542 41.9544 25.8874 44.3888 24.3853C46.8405 22.866 49.6374 22.1063 52.7797 22.1063C55.922 22.1063 58.7103 22.866 61.1447 24.3853C63.5963 25.8874 65.4869 28.0542 66.8163 30.8857C68.163 33.6999 68.8363 36.9544 68.8363 40.6492V42.3325ZM60.9634 40.6233C60.9634 36.6695 60.2555 33.6654 58.8398 31.6108C57.424 29.5563 55.404 28.529 52.7797 28.529C50.1726 28.529 48.1613 29.5476 46.7455 31.5849C45.3298 33.605 44.6133 36.5746 44.596 40.4938V42.3325C44.596 46.1826 45.3039 49.1695 46.7196 51.2931C48.1354 53.4168 50.1726 54.4786 52.8315 54.4786C55.4385 54.4786 57.4413 53.4599 58.8398 51.4226C60.2383 49.3681 60.9461 46.3812 60.9634 42.462V40.6233Z" fill="white"/>
<path d="M90.1423 37.039V39.1238H94.9075V48.9779H90.1423V51.0497H101.874V48.9779H97.3031V37.039H90.1423ZM94.5968 33.3615C94.5968 33.75 94.7133 34.0737 94.9464 34.3327C95.1881 34.5917 95.5507 34.7212 96.0341 34.7212C96.5089 34.7212 96.8671 34.5917 97.1088 34.3327C97.3506 34.0737 97.4714 33.75 97.4714 33.3615C97.4714 33.1457 97.4369 32.9472 97.3678 32.7659C97.2988 32.5846 97.1952 32.4335 97.057 32.3127C96.9448 32.2004 96.8024 32.1141 96.6297 32.0537C96.4571 31.9846 96.2585 31.9501 96.0341 31.9501C95.8096 31.9501 95.6068 31.9846 95.4255 32.0537C95.2528 32.1141 95.1104 32.2004 94.9982 32.3127C94.86 32.4421 94.7565 32.5975 94.6874 32.7788C94.627 32.9601 94.5968 33.1543 94.5968 33.3615Z" fill="white"/>
<path d="M111.366 33.6464H108.957V37.039H105.28V38.8907H108.957V46.5046C108.957 47.3679 109.069 48.106 109.294 48.7189C109.527 49.3232 109.842 49.8152 110.239 50.1951C110.636 50.5835 111.102 50.8684 111.637 51.0497C112.181 51.2224 112.764 51.3087 113.386 51.3087C113.757 51.3087 114.128 51.2914 114.499 51.2569C114.879 51.2224 115.237 51.1706 115.574 51.1015C115.911 51.0411 116.221 50.9677 116.506 50.8814C116.791 50.7864 117.033 50.6785 117.231 50.5576L116.895 48.8613C116.748 48.8959 116.558 48.939 116.325 48.9908C116.101 49.034 115.859 49.0772 115.6 49.1203C115.332 49.1635 115.06 49.2023 114.784 49.2369C114.508 49.2628 114.24 49.2757 113.981 49.2757C113.627 49.2757 113.291 49.2325 112.971 49.1462C112.66 49.0599 112.384 48.9088 112.143 48.693C111.901 48.4858 111.711 48.2053 111.573 47.8513C111.435 47.4974 111.366 47.0485 111.366 46.5046V38.8907H116.701V37.039H111.366V33.6464Z" fill="white"/>
<path d="M98.1216 60.663C98.1216 62.3107 96.7859 63.6464 95.1382 63.6464C93.4905 63.6464 92.1548 62.3107 92.1548 60.663C92.1548 59.0153 93.4905 57.6796 95.1382 57.6796C96.7859 57.6796 98.1216 59.0153 98.1216 60.663Z" fill="white"/>
<path d="M116.022 60.663C116.022 62.3107 114.686 63.6464 113.039 63.6464C111.391 63.6464 110.055 62.3107 110.055 60.663C110.055 59.0153 111.391 57.6796 113.039 57.6796C114.686 57.6796 116.022 59.0153 116.022 60.663Z" fill="white"/>
</svg>
