<svg width="9" height="11" viewBox="0 0 9 11" fill="none" xmlns="http://www.w3.org/2000/svg">
<path d="M8.68372 8.138C8.88905 8.37133 8.99172 8.628 8.99172 8.908C8.99172 9.22533 8.86572 9.50533 8.61372 9.748C8.37105 9.98133 8.09572 10.098 7.78772 10.098C7.46105 10.098 7.17638 9.958 6.93372 9.678L4.52572 6.794L2.07572 9.678C1.83305 9.958 1.55305 10.098 1.23572 10.098C0.927717 10.098 0.647717 9.97667 0.395717 9.734C0.15305 9.49133 0.0317168 9.21133 0.0317168 8.894C0.0317168 8.62333 0.129717 8.37133 0.325717 8.138L3.01372 5.03L0.395717 1.992C0.190383 1.74933 0.0877168 1.49733 0.0877168 1.236C0.0877168 0.918666 0.20905 0.643333 0.451717 0.409999C0.703717 0.167333 0.988384 0.0459996 1.30572 0.0459996C1.63238 0.0459996 1.91705 0.186 2.15972 0.465999L4.52572 3.266L6.87772 0.465999C7.10172 0.186 7.37705 0.0459996 7.70372 0.0459996C8.02105 0.0459996 8.30105 0.167333 8.54372 0.409999C8.79572 0.643333 8.92172 0.918666 8.92172 1.236C8.92172 1.50667 8.82372 1.75867 8.62772 1.992L6.00972 5.03L8.68372 8.138Z" fill="white"/>
</svg>
