<svg width="23" height="23" viewBox="0 0 23 23" fill="none" xmlns="http://www.w3.org/2000/svg">
<path d="M13.5488 20.9023C14.0371 20.4141 13.9883 19.6816 13.5488 19.1934L7.64062 13.5781H21.7031C22.3379 13.5781 22.875 13.0898 22.875 12.4062V10.8438C22.875 10.209 22.3379 9.67188 21.7031 9.67188H7.64062L13.5488 4.10547C13.9883 3.61719 14.0371 2.88477 13.5488 2.39648L12.4746 1.32227C12.0352 0.882812 11.2539 0.882812 10.8145 1.32227L1.3418 10.8438C0.853516 11.2832 0.853516 12.0156 1.3418 12.4551L10.8145 21.9766C11.2539 22.416 11.9863 22.416 12.4746 21.9766L13.5488 20.9023Z" fill="white"/>
</svg>
