<svg width="7" height="19" viewBox="0 0 7 19" fill="none" xmlns="http://www.w3.org/2000/svg">
<path d="M6.26001 15.4375C6.26001 13.8906 4.99438 12.625 3.44751 12.625C1.86548 12.625 0.63501 13.8906 0.63501 15.4375C0.63501 17.0195 1.86548 18.25 3.44751 18.25C4.99438 18.25 6.26001 17.0195 6.26001 15.4375ZM0.951416 1.16406L1.40845 10.7266C1.4436 11.1484 1.83032 11.5 2.2522 11.5H4.60767C5.02954 11.5 5.41626 11.1484 5.45142 10.7266L5.90845 1.16406C5.9436 0.671875 5.55688 0.25 5.0647 0.25H1.79517C1.30298 0.25 0.91626 0.671875 0.951416 1.16406Z" fill="white"/>
</svg>
